<svg width="175" height="83" viewBox="0 0 175 83" fill="none" xmlns="http://www.w3.org/2000/svg">
<g clip-path="url(#clip0_5_1297)">
<path d="M22.3712 26.0693C22.4727 25.5919 22.625 24.9638 22.625 24.4362C22.625 22.6273 20.7728 22.5268 19.631 22.5268H17.449L15.2162 32.6266H18.3116L18.1848 33.2547H9.05072L9.17758 32.6266H11.7909L16.1804 12.6281H13.4148L13.567 12H29.6024L28.2323 18.2558H27.6233C27.7248 17.2006 27.7502 16.8991 27.7502 16.3967C27.7502 12.7537 25.3398 12.6281 23.0309 12.6281H19.631L17.6012 21.8987H19.9101C20.6713 21.8987 21.331 21.9239 22.1683 21.5721C23.4115 20.9943 23.6906 20.0647 23.9697 19.0095L24.1473 18.2558H24.7816L22.9041 26.7727H22.2444L22.3966 26.0442L22.3712 26.0693Z" fill="white"/>
<path d="M44.0393 27.0742L42.7199 33.2798H26.7861L26.9637 32.6517H29.5263L33.8903 12.6281H31.0233L31.1755 12H40.0812L39.929 12.6281H37.3156L32.9262 32.6266H36.6813C38.9395 32.6266 40.0305 32.4758 41.2483 31.1191C41.9588 30.3152 42.7707 28.9836 43.3796 27.0491H44.0139L44.0393 27.0742Z" fill="white"/>
<path d="M21.2041 62.0464C21.3056 61.5942 21.3817 61.0415 21.3817 60.5893C21.3817 58.7552 19.5042 58.7552 18.743 58.7552H17.3729L15.1909 68.8299H18.3624C20.7474 68.7294 22.8026 68.6791 24.4264 66.8451C25.5428 65.6391 25.9741 64.2322 26.3547 63.0514H27.0144L25.6189 69.4579H9L9.12686 68.8299H11.7656L16.1296 48.8314H13.2626L13.3894 48.2033H29.1711L28.0547 53.5295H27.4204C27.5219 53.0522 27.5472 52.6502 27.5472 52.1979C27.5472 51.394 27.2935 50.4393 26.8114 49.8363C25.9488 48.8314 24.5787 48.8062 22.625 48.8062H19.5549L17.5505 58.0769H18.6161C19.3773 58.0769 20.1385 58.102 20.8743 57.7754C22.2951 57.2227 22.5235 55.9163 22.7518 55.0621L22.9294 54.4088H23.513L21.6862 62.8504H21.0519L21.2295 62.0464H21.2041Z" fill="white"/>
<path d="M37.3917 57.6498H34.4992L32.1142 68.2017C31.4799 70.7644 30.7441 74.0053 28.6129 76.2665C27.6741 77.3216 26.4562 78.0251 25.01 78.0251C23.5637 78.0251 22.5742 77.3719 22.5742 76.3669C22.5742 75.9147 22.8533 75.1359 23.6906 75.1359C24.3249 75.1359 24.7562 75.5379 24.7562 76.0906C24.7562 76.2916 24.7055 76.4926 24.5533 76.6936C24.401 76.9699 24.3757 76.995 24.3757 77.1207C24.3757 77.4724 24.9339 77.5226 25.0861 77.5226C27.1159 77.5226 27.8263 74.7842 28.3084 72.5481L31.6322 57.6749H28.7651L28.9173 57.0719H31.759L31.9366 56.3182C32.4187 54.5093 32.9769 52.0472 34.956 49.9368C36.6559 48.1028 38.2797 47.8515 39.0155 47.8515C40.3856 47.8515 41.2737 48.6052 41.2737 49.5599C41.2737 50.5146 40.4618 50.9669 39.8782 50.9669C39.1424 50.9669 38.6603 50.4142 38.6603 49.8112C38.6603 49.3087 38.914 49.158 39.117 49.0575C39.2439 48.957 39.4215 48.8816 39.4215 48.6555C39.4215 48.555 39.3707 48.354 39.0155 48.354C38.432 48.354 38.0514 48.6052 37.7723 48.8062C36.3768 49.8614 35.844 51.7708 35.0321 55.2128L34.6769 57.0217H37.5439L37.4171 57.6247L37.3917 57.6498Z" fill="white"/>
<path d="M45.6631 57.6498H42.7707L40.3857 68.2017C39.7514 70.7644 39.0156 74.0053 36.8843 76.2665C35.9455 77.3216 34.7276 78.0251 33.2814 78.0251C31.8352 78.0251 30.8456 77.3719 30.8456 76.3669C30.8456 75.9147 31.1247 75.1359 31.962 75.1359C32.5963 75.1359 33.0277 75.5379 33.0277 76.0906C33.0277 76.2916 32.9769 76.4926 32.8247 76.6936C32.6725 76.9699 32.6471 76.995 32.6471 77.1207C32.6471 77.4724 33.2053 77.5226 33.3575 77.5226C35.3873 77.5226 36.0977 74.7842 36.5798 72.5481L39.9036 57.6749H37.0365L37.1887 57.0719H40.0305L40.2081 56.3182C40.6901 54.5093 41.2483 52.0472 43.2274 49.9368C44.9273 48.1028 46.5512 47.8515 47.287 47.8515C48.6571 47.8515 49.5451 48.6052 49.5451 49.5599C49.5451 50.5146 48.7332 50.9669 48.1496 50.9669C47.4138 50.9669 46.9317 50.4142 46.9317 49.8112C46.9317 49.3087 47.1855 49.158 47.3884 49.0575C47.5153 48.957 47.6929 48.8816 47.6929 48.6555C47.6929 48.555 47.6422 48.354 47.287 48.354C46.7034 48.354 46.3228 48.6052 46.0437 48.8062C44.6482 49.8614 44.1154 51.7708 43.3035 55.2128L42.9483 57.0217H45.8154L45.6885 57.6247L45.6631 57.6498Z" fill="white"/>
<path d="M55.4823 66.5185C53.6301 68.9555 51.651 69.8097 49.9511 69.8097C47.2362 69.8097 45.0542 67.649 45.0542 64.4835C45.0542 62.6997 45.7646 60.8405 46.9318 59.4838C48.7332 57.4739 51.3212 56.67 53.0211 56.67C55.1778 56.67 56.827 57.8257 56.827 59.509C56.827 63.0765 50.6869 63.8805 48.1496 63.7549C48.0228 64.2071 47.8705 64.8101 47.8705 66.1165C47.8705 66.7195 47.8452 69.1816 50.3063 69.1816C52.1838 69.1816 53.554 67.8249 55.0256 66.217L55.4823 66.5185ZM54.6196 58.906C54.6196 57.8508 53.9599 57.2478 52.8943 57.2478C49.8496 57.2478 48.5048 61.4937 48.2765 63.2775C52.2853 63.177 54.645 60.5642 54.645 58.906H54.6196Z" fill="white"/>
<path d="M68.8028 62.0464C68.9043 61.5942 68.9804 61.0415 68.9804 60.5893C68.9804 58.7552 67.1028 58.7552 66.3417 58.7552H64.9715L62.7895 68.8299H65.9611C68.3461 68.7294 70.4012 68.6791 72.0251 66.8451C73.1415 65.6391 73.5728 64.2322 73.9534 63.0514H74.6131L73.2176 69.4579H56.624L56.7509 68.8299H59.3896L63.7537 48.8314H60.8866L61.0134 48.2033H76.7951L75.6787 53.5295H75.0444C75.1459 53.0522 75.1712 52.6502 75.1712 52.1979C75.1712 51.394 74.9175 50.4393 74.4355 49.8363C73.5728 48.8314 72.2027 48.8062 70.249 48.8062H67.1789L65.1745 58.0769H66.2402C67.0013 58.0769 67.7625 58.102 68.4983 57.7754C69.9192 57.2227 70.1475 55.9163 70.3759 55.0621L70.5535 54.4088H71.137L69.3102 62.8504H68.6759L68.8535 62.0464H68.8028Z" fill="white"/>
<path d="M78.5204 48.153H84.1531L79.7383 66.8702C79.6368 67.2722 79.4845 67.8249 79.4845 68.051C79.4845 68.5535 79.8144 68.7545 80.1442 68.7545C81.3113 68.7545 82.5292 66.3677 83.1635 65.2623L83.6456 65.5135C82.9859 66.8953 81.5397 69.7845 78.9263 69.7845C77.3786 69.7845 76.8965 68.6288 76.8965 67.7746C76.8965 67.1968 76.998 66.5436 77.4801 64.5839L81.2352 48.8062H78.3174L78.5204 48.2033V48.153Z" fill="white"/>
<path d="M86.7664 48.153H92.3991L87.9843 66.8702C87.8828 67.2722 87.7306 67.8249 87.7306 68.051C87.7306 68.5535 88.0604 68.7545 88.3902 68.7545C89.5574 68.7545 90.7752 66.3677 91.4096 65.2623L91.8916 65.5135C91.2319 66.8953 89.7857 69.7845 87.1724 69.7845C85.6247 69.7845 85.1426 68.6288 85.1426 67.7746C85.1426 67.1968 85.2441 66.5436 85.7261 64.5839L89.4813 48.8062H86.5634L86.7664 48.2033V48.153Z" fill="white"/>
<path d="M103.69 66.5185C101.838 68.9555 99.8585 69.8097 98.1586 69.8097C95.4437 69.8097 93.2617 67.649 93.2617 64.4835C93.2617 62.6997 93.9722 60.8405 95.1393 59.4838C96.9407 57.4739 99.5287 56.67 101.229 56.67C103.385 56.67 105.035 57.8257 105.035 59.509C105.035 63.0765 98.8944 63.8805 96.3572 63.7549C96.2303 64.2071 96.0781 64.8101 96.0781 66.1165C96.0781 66.7195 96.0527 69.1816 98.5138 69.1816C100.391 69.1816 101.761 67.8249 103.233 66.217L103.69 66.5185ZM102.827 58.906C102.827 57.8508 102.167 57.2478 101.102 57.2478C98.0571 57.2478 96.7124 61.4937 96.484 63.2775C100.493 63.177 102.852 60.5642 102.852 58.906H102.827Z" fill="white"/>
<path d="M125.231 62.0464C125.332 61.5942 125.409 61.0415 125.409 60.5893C125.409 58.7552 123.531 58.7552 122.77 58.7552H121.4L119.218 68.8299H122.389C124.774 68.7294 126.829 68.6791 128.453 66.8451C129.57 65.6391 130.001 64.2322 130.382 63.0514H131.041L129.646 69.4579H113.052L113.179 68.8299H115.818L120.182 48.8314H117.315L117.442 48.2033H133.223L132.107 53.5295H131.473C131.574 53.0522 131.599 52.6502 131.599 52.1979C131.599 51.394 131.346 50.4393 130.864 49.8363C130.001 48.8314 128.631 48.8062 126.677 48.8062H123.607L121.603 58.0769H122.668C123.43 58.0769 124.191 58.102 124.927 57.7754C126.347 57.2227 126.576 55.9163 126.804 55.0621L126.982 54.4088H127.565L125.738 62.8504H125.104L125.282 62.0464H125.231Z" fill="white"/>
<path d="M146.62 64.2573L145.453 69.4328H132.564V67.7244L135.304 65.3125C139.541 61.7952 144.159 57.5493 144.159 52.9265C144.159 52.0472 144.007 51.5447 143.905 51.2935C143.575 50.4142 142.789 49.359 141.114 49.359C138.957 49.359 137.004 50.9166 137.004 52.198C137.004 52.8009 137.562 53.0019 137.816 53.0019C138.628 53.0019 139.186 53.7305 139.186 54.4088C139.186 54.8862 138.831 55.8911 137.689 55.8911C136.369 55.8911 135.71 54.6601 135.71 53.429C135.71 50.8413 138.298 48.4796 141.901 48.4796C144.463 48.4796 147.406 49.7107 147.406 53.0019C147.406 55.3133 145.909 57.0971 143.804 59.1823C141.825 61.0415 140.404 62.2223 138.602 63.7549L134.898 66.8953H142.51C143.524 66.8702 144.184 66.8702 144.692 66.5436C145.605 66.0662 145.808 64.5839 145.909 64.2573H146.62Z" fill="white"/>
<path d="M154.866 69.8097C151.669 69.8097 149.538 66.8451 149.538 62.3982C149.538 60.6144 149.969 58.4286 150.553 56.7705C151.923 52.9014 155.373 48.5048 158.9 48.5048C162.072 48.5048 164 51.9467 164 55.9414C164 57.5995 163.67 59.6848 163.087 61.3932C161.437 66.3928 157.987 69.8097 154.866 69.8097ZM160.955 56.0921C161.209 54.7354 161.412 53.7054 161.412 52.4241C161.412 51.6452 161.387 49.1329 158.824 49.1329C156.414 49.1329 155.297 51.6452 154.333 54.8862C153.369 58.0266 152.202 63.5036 152.202 65.8904C152.202 66.3928 152.253 67.1968 152.633 67.8751C153.217 68.9555 154.105 69.2067 154.79 69.2067C156.033 69.2067 156.896 68.4279 157.352 67.85C158.621 66.2421 159.661 62.1218 160.245 59.5592C160.524 58.3784 160.727 57.2729 160.981 56.0921H160.955Z" fill="white"/>
</g>
<path d="M1 83V1H175" stroke="white"/>
<defs>
<clipPath id="clip0_5_1297">
<rect width="155" height="66" fill="white" transform="translate(9 12)"/>
</clipPath>
</defs>
</svg>
